<svg xmlns="http://www.w3.org/2000/svg" viewBox="-200 -2166 10144 2872">
  <defs>
    <filter id="glow" x="-10%" y="-10%" width="120%" height="120%">
      <feGaussianBlur stdDeviation="40" result="b"/>
      <feFlood flood-color="whitesmoke"/>
      <feComposite in2="b" operator="in" result="g"/>
      <feMerge>
        <feMergeNode in="g"/>
        <feMergeNode in="SourceGraphic"/>
      </feMerge>
    </filter>
  </defs>
  <g transform="scale(1,-1)" fill="#fff" filter="url(#glow)">
    <path transform="translate(0,0)" d="M200 -40V1160Q200 1510 550 1510H860Q1040 1510 1110 1414Q1190 1510 1360 1510H1670Q2020 1510 2020 1160V50L1830 -40H1820V1160Q1820 1330 1670 1330H1360Q1210 1330 1210 1160V50L1020 -40H1010V1160Q1010 1330 860 1330H550Q400 1330 400 1160V50L210 -40Z"/>
    <path transform="translate(2220,0)" d="M450 0Q150 0 150 300V800Q150 1100 450 1100H680Q980 1100 980 800V747L353 262Q367 180 450 180H680Q780 180 780 300V353L970 443H980V300Q980 0 680 0ZM350 471 779 817Q773 920 680 920H450Q350 920 350 800Z"/>
    <path transform="translate(3350,0)" d="M282 -40V918H25V928L106 1100H282V1460L472 1550H482V1100H739V1090L658 918H482V50L292 -40Z"/>
    <path transform="translate(4114,0)" d="M400 180H610Q710 180 710 300V437Q710 557 610 557H400Q300 557 300 437V300Q300 180 400 180ZM400 0Q100 0 100 300V437Q100 737 400 737H610Q662 737 710 707V800Q710 920 610 920H252V930L332 1100H610Q910 1100 910 800V50L720 -40H710V30Q672 0 610 0Z"/>
    <path transform="translate(5174,0)" d="M450 0Q150 0 150 300V800Q150 1100 450 1100H680Q980 1100 980 800V747L790 657H780V800Q780 920 680 920H450Q350 920 350 800V300Q350 180 450 180H680Q780 180 780 300V353L970 443H980V300Q980 0 680 0Z"/>
    <path transform="translate(6304,0)" d="M450 0Q150 0 150 300V1050L340 1140H350V300Q350 180 450 180H680Q780 180 780 300V1050L970 1140H980V300Q980 0 680 0Z"/>
    <path transform="translate(7434,0)" d="M500 180H730Q830 180 830 300V800Q830 920 730 920H500Q400 920 400 800V300Q400 180 500 180ZM500 0Q200 0 200 300V1460L390 1550H400V1069Q440 1100 500 1100H730Q1030 1100 1030 800V300Q1030 0 730 0Z"/>
    <path transform="translate(8614,0)" d="M450 0Q150 0 150 300V800Q150 1100 450 1100H680Q980 1100 980 800V747L353 262Q367 180 450 180H680Q780 180 780 300V353L970 443H980V300Q980 0 680 0ZM350 471 779 817Q773 920 680 920H450Q350 920 350 800Z"/>
  </g>
</svg>
