<svg width="104" height="94" viewBox="0 0 104 94" fill="none" xmlns="http://www.w3.org/2000/svg">
<path d="M64.965 0H38.3725C37.4839 0 36.7719 0.734187 36.7526 1.64678C36.2152 27.2989 23.1496 51.6457 0.660962 68.8908C-0.0530164 69.438 -0.215677 70.4666 0.306308 71.2075L15.8652 93.3053C16.3945 94.0574 17.4258 94.2272 18.1518 93.6748C32.2134 82.9624 43.5237 70.0395 51.6688 55.7159C59.8139 70.0395 71.1249 82.9624 85.1864 93.6748C85.9118 94.2272 86.9431 94.0574 87.473 93.3053L103.032 71.2075C103.553 70.4666 103.391 69.438 102.677 68.8908C80.1879 51.6457 67.1223 27.2989 66.5857 1.64678C66.5663 0.734187 65.8537 0 64.965 0Z" fill="#FF875B"/>
</svg>
