<svg width="48" height="48" viewBox="0 0 48 48" fill="none" xmlns="http://www.w3.org/2000/svg">
<g clip-path="url(#clip0_7379_7542)">
<rect width="48" height="48" fill="url(#paint0_linear_7379_7542)"/>
<path d="M29.2618 9.4812C29.3146 9.5706 29.2448 9.68111 29.141 9.68111C27.0391 9.68111 25.3304 11.3452 25.2903 13.4131C24.5706 13.2788 23.8248 13.2687 23.0881 13.3928C23.0372 11.3343 21.3329 9.68111 19.2378 9.68111C19.1339 9.68111 19.0641 9.57052 19.1169 9.48105C20.1343 7.75788 22.025 6.6 24.1893 6.6C26.3537 6.6 28.2444 7.75794 29.2618 9.4812Z" fill="white"/>
<path d="M35.4871 22.2707C36.2021 22.4872 36.8758 21.8588 36.606 21.1622C34.6008 15.9855 28.6659 13.8647 24.1605 13.8647C19.6464 13.8647 13.5793 16.0541 11.7047 21.1945C11.4523 21.8866 12.1242 22.4943 12.8285 22.2784L23.6256 18.97C23.9372 18.8745 24.2703 18.8739 24.5822 18.9684L35.4871 22.2707Z" fill="white"/>
<path d="M11.5993 23.2673L23.6346 19.6171C23.9444 19.5232 24.2751 19.5229 24.585 19.6164L36.696 23.2691C37.7073 23.5741 38.3994 24.5057 38.3994 25.562V36.5673C38.3525 39.2536 35.9393 41.4067 33.2539 41.4067H28.7935C28.3526 41.4067 27.9956 41.0501 27.9956 40.6092V36.7506C27.9956 35.2313 28.8948 33.8561 30.2862 33.2475C32.1514 32.4316 34.358 31.328 34.773 29.1134C34.907 28.3986 34.4409 27.7092 33.7279 27.5675C31.9252 27.2091 29.9266 27.3475 28.2365 28.1034C26.3179 28.9616 25.816 30.3891 25.6302 32.3062L25.405 34.3715C25.3362 35.0027 24.7444 35.4862 24.1097 35.4862C23.4532 35.4862 22.9609 34.9862 22.8897 34.3332L22.6686 32.3062C22.5095 30.6641 22.221 29.069 20.5234 28.3097C18.587 27.4436 16.641 27.156 14.5709 27.5675C13.858 27.7092 13.3919 28.3986 13.5258 29.1134C13.9445 31.3473 16.1337 32.4256 18.0126 33.2475C19.4041 33.8561 20.3033 35.2313 20.3033 36.7506V40.6085C20.3033 41.0494 19.9463 41.4067 19.5054 41.4067H15.0449C12.3595 41.4067 9.94631 39.2536 9.89941 36.5673V25.5592C9.89941 24.5042 10.5897 23.5735 11.5993 23.2673Z" fill="white"/>
</g>
<defs>
<linearGradient id="paint0_linear_7379_7542" x1="-9.55209" y1="-6.44444" x2="50.2405" y2="41.3026" gradientUnits="userSpaceOnUse">
<stop stop-color="#0973C0"/>
<stop offset="1" stop-color="#1C49DE"/>
</linearGradient>
<clipPath id="clip0_7379_7542">
<rect width="48" height="48" rx="8" fill="white"/>
</clipPath>
</defs>
</svg>
