<svg width="2127" height="2085" viewBox="0 0 2127 2085" fill="none" xmlns="http://www.w3.org/2000/svg">
<rect x="64" y="43" width="1990" height="1990" rx="70" fill="#212121" stroke="black" stroke-width="10"/>
<path fill-rule="evenodd" clip-rule="evenodd" d="M1093.61 197.525C1083.36 191.468 1071.46 188 1058.78 188C1046.09 188 1034.19 191.468 1023.94 197.525L1023.93 197.501L698.707 390.914L698.72 390.938C677.883 403.259 663.861 426.288 663.861 452.671C663.861 492.025 695.063 523.928 733.552 523.928C746.239 523.928 758.137 520.46 768.385 514.403L768.398 514.427L1058.78 341.736L1349.16 514.427L1349.17 514.403C1359.42 520.46 1371.31 523.928 1384 523.928C1422.49 523.928 1453.69 492.025 1453.69 452.671C1453.69 426.288 1439.67 403.259 1418.83 390.938L1418.85 390.914L1093.62 197.501L1093.61 197.525ZM401.691 581.613C413.701 581.613 425.001 584.718 434.864 590.187L434.877 590.164L1058.52 958.463L1679.89 591.792L1679.9 591.82C1690.75 585.122 1703.19 581.592 1715.86 581.613C1754.35 581.613 1785.55 613.516 1785.55 652.87V1416.34C1785.55 1455.7 1754.35 1487.6 1715.86 1487.6C1677.37 1487.6 1646.17 1455.7 1646.17 1416.34V776.326L1128.47 1081.83V1816.74C1128.47 1856.1 1097.27 1888 1058.78 1888C1020.29 1888 989.086 1856.1 989.086 1816.74V1082.13L471.382 776.39V1416.34C471.382 1455.7 440.18 1487.6 401.691 1487.6C363.202 1487.6 332 1455.7 332 1416.34V652.87C332 613.516 363.202 581.613 401.691 581.613Z" fill="#00FF9D"/>
</svg>
